0
SECTION
2
HEADER
9
$INSUNITS
70
4
9
$ACADVER
1
AC1014
9
$HANDSEED
5
FFFF
0
ENDSEC
0
SECTION
2
TABLES
0
TABLE
2
VPORT
5
8
100
AcDbSymbolTable
0
ENDTAB
0
TABLE
2
LTYPE
5
5
100
AcDbSymbolTable
0
LTYPE
5
14
100
AcDbSymbolTableRecord
100
AcDbLinetypeTableRecord
2
BYBLOCK
70
0
0
LTYPE
5
15
100
AcDbSymbolTableRecord
100
AcDbLinetypeTableRecord
2
BYLAYER
70
0
0
LTYPE
5
16
100
AcDbSymbolTableRecord
100
AcDbLinetypeTableRecord
2
DASHED
70
0
3
Dashed __ __ __ __ __ __ __ __ __ __ __ __ __ _
72
65
73
2
40
0.75
49
0.5
74
0
49
-0.25
74
0
0
ENDTAB
0
TABLE
2
LAYER
5
2
100
AcDbSymbolTable
70
2
0
LAYER
5
50
100
AcDbSymbolTableRecord
100
AcDbLayerTableRecord
2
0
70
0
62
7
6
CONTINUOUS
0
ENDTAB
0
TABLE
2
STYLE
5
3
100
AcDbSymbolTable
70
1
0
STYLE
5
11
100
AcDbSymbolTableRecord
100
AcDbTextStyleTableRecord
2
STANDARD
70
0
0
ENDTAB
0
TABLE
2
VIEW
5
6
100
AcDbSymbolTable
70
0
0
ENDTAB
0
TABLE
2
UCS
5
7
100
AcDbSymbolTable
70
0
0
ENDTAB
0
TABLE
2
APPID
5
9
100
AcDbSymbolTable
70
2
0
APPID
5
12
100
AcDbSymbolTableRecord
100
AcDbRegAppTableRecord
2
ACAD
70
0
0
ENDTAB
0
TABLE
2
DIMSTYLE
5
A
100
AcDbSymbolTable
70
1
0
ENDTAB
0
TABLE
2
BLOCK_RECORD
5
1
100
AcDbSymbolTable
70
1
0
BLOCK_RECORD
5
1F
100
AcDbSymbolTableRecord
100
AcDbBlockTableRecord
2
*MODEL_SPACE
0
BLOCK_RECORD
5
1B
100
AcDbSymbolTableRecord
100
AcDbBlockTableRecord
2
*PAPER_SPACE
0
ENDTAB
0
ENDSEC
0
SECTION
2
BLOCKS
0
BLOCK
5
20
100
AcDbEntity
100
AcDbBlockBegin
2
*MODEL_SPACE
0
ENDBLK
5
21
100
AcDbEntity
100
AcDbBlockEnd
0
BLOCK
5
1C
100
AcDbEntity
100
AcDbBlockBegin
2
*PAPER_SPACE
0
ENDBLK
5
1D
100
AcDbEntity
100
AcDbBlockEnd
0
ENDSEC
0
SECTION
2
ENTITIES
0
POINT
5
100
100
AcDbEntity
8
0
100
AcDbPoint
10
0.52113822470001736
20
-90.4132362016
30
0
0
POINT
5
101
100
AcDbEntity
8
0
100
AcDbPoint
10
110.52113822470002
20
-90.4132362016
30
0
0
POINT
5
102
100
AcDbEntity
8
0
100
AcDbPoint
10
0.15068180732292547
20
-186.27472685500885
30
0
0
POINT
5
103
100
AcDbEntity
8
0
100
AcDbPoint
10
110.15068180732293
20
-186.27472685500885
30
0
0
LWPOLYLINE
5
104
100
AcDbEntity
8
0
100
AcDbPolyline
90
4
70
1
43
0.0
10
2.9495723894436265
20
-115.02267525769932
10
32.949572389443624
20
-115.02267525769932
10
32.949572389443624
20
-110.02267525769932
10
2.9495723894436265
20
-110.02267525769932
0
LWPOLYLINE
5
105
100
AcDbEntity
8
0
100
AcDbPolyline
90
4
70
1
43
0.0
10
43.707152789784438
20
-113.18860922676163
10
69.707152789784431
20
-113.18860922676163
10
69.707152789784431
20
-101.18860922676161
10
43.707152789784438
20
-101.18860922676161
0
LWPOLYLINE
5
106
100
AcDbEntity
8
0
100
AcDbPolyline
90
4
70
1
43
0.0
10
95.597693861372449
20
-160.60504048453382
10
100.59769386137245
20
-160.60504048453382
10
100.59769386137245
20
-130.60504048453376
10
95.597693861372449
20
-130.60504048453376
0
CIRCLE
5
107
100
AcDbEntity
8
0
100
AcDbCircle
10
90.597693861372449
20
-111.42788546678494
30
0
40
1.5999999999999934
210
0
220
0
230
1
0
CIRCLE
5
108
100
AcDbEntity
8
0
100
AcDbCircle
10
105.59769386137245
20
-111.40827193283346
30
0
40
1.6000000000000036
210
0
220
0
230
1
0
LWPOLYLINE
5
109
100
AcDbEntity
8
0
100
AcDbPolyline
90
4
70
1
43
0.0
10
93.097693861372449
20
-109.60504048453376
10
103.09769386137245
20
-109.60504048453376
10
103.09769386137245
20
-104.60504048453376
10
93.097693861372449
20
-104.60504048453376
0
LWPOLYLINE
5
110
100
AcDbEntity
8
0
100
AcDbPolyline
90
8
70
1
43
0.0
10
3.5211382247000174
20
-90.4132362016
10
107.52113822470001
20
-90.4132362016
42
0.4142135623730881
10
110.52113822470002
20
-87.4132362016
10
110.52113822470002
20
-3.4132362016000073
42
0.4142135623730917
10
107.52113822470001
20
-0.41323620159999908
10
3.5211382247000245
20
-0.41323620160000019
42
0.41421356237309614
10
0.52113822470001681
20
-3.4132362016000002
10
0.52113822470002846
20
-87.413236201600014
42
0.41421356237309154
0
CIRCLE
5
111
100
AcDbEntity
8
0
100
AcDbCircle
10
4.5211382247000031
20
-4.1632362016000002
30
0
40
1.6000000000000014
210
0
220
0
230
1
0
CIRCLE
5
112
100
AcDbEntity
8
0
100
AcDbCircle
10
4.5211382247000031
20
-86.6632362016
30
0
40
1.6000000000000041
210
0
220
0
230
1
0
CIRCLE
5
113
100
AcDbEntity
8
0
100
AcDbCircle
10
106.52113822470002
20
-4.1632362016000002
30
0
40
1.600000000000005
210
0
220
0
230
1
0
CIRCLE
5
114
100
AcDbEntity
8
0
100
AcDbCircle
10
106.52113822470002
20
-86.6632362016
30
0
40
1.6000000000000014
210
0
220
0
230
1
0
CIRCLE
5
115
100
AcDbEntity
8
0
100
AcDbCircle
10
106.15068180732294
20
-182.52472685500885
30
0
40
1.6000000000000014
210
0
220
0
230
1
0
CIRCLE
5
116
100
AcDbEntity
8
0
100
AcDbCircle
10
4.1506818073229113
20
-100.02472685500885
30
0
40
1.6000000000000014
210
0
220
0
230
1
0
LWPOLYLINE
5
117
100
AcDbEntity
8
0
100
AcDbPolyline
90
8
70
1
43
0.0
10
107.15068180732291
20
-96.274726855008851
10
3.1506818073229326
20
-96.274726855008851
42
0.41421356237309176
10
0.1506818073229238
20
-99.274726855008865
10
0.15068180732293157
20
-183.27472685500882
42
0.4142135623730937
10
3.1506818073229255
20
-186.27472685500885
10
107.15068180732291
20
-186.27472685500885
42
0.41421356237308982
10
110.15068180732291
20
-183.27472685500885
10
110.15068180732293
20
-99.274726855008865
42
0.4142135623730881
0
CIRCLE
5
118
100
AcDbEntity
8
0
100
AcDbCircle
10
106.15068180732294
20
-100.02472685500885
30
0
40
1.600000000000005
210
0
220
0
230
1
0
CIRCLE
5
119
100
AcDbEntity
8
0
100
AcDbCircle
10
4.1506818073229113
20
-182.52472685500885
30
0
40
1.6000000000000041
210
0
220
0
230
1
0
CIRCLE
5
120
100
AcDbEntity
8
0
100
AcDbCircle
10
8.6216971281640653
20
-44.330566177713777
30
0
40
1.6000000000000014
210
0
220
0
230
1
0
CIRCLE
5
121
100
AcDbEntity
8
0
100
AcDbCircle
10
104.12169712816407
20
-44.330566177713777
30
0
40
1.6000000000000014
210
0
220
0
230
1
0
CIRCLE
5
122
100
AcDbEntity
8
0
100
AcDbCircle
10
8.6216971281640653
20
-77.830566177713791
30
0
40
1.6000000000000068
210
0
220
0
230
1
0
CIRCLE
5
123
100
AcDbEntity
8
0
100
AcDbCircle
10
104.12169712816407
20
-77.830566177713791
30
0
40
1.5999999999999861
210
0
220
0
230
1
0
CIRCLE
5
124
100
AcDbEntity
8
0
100
AcDbCircle
10
42.029239232648692
20
-11.099016335667326
30
0
40
1.3499999999999932
210
0
220
0
230
1
0
CIRCLE
5
125
100
AcDbEntity
8
0
100
AcDbCircle
10
100.02923923264871
20
-11.099016335667326
30
0
40
1.3500000000000001
210
0
220
0
230
1
0
CIRCLE
5
126
100
AcDbEntity
8
0
100
AcDbCircle
10
42.029239232648692
20
-34.099016335667329
30
0
40
1.3499999999999979
210
0
220
0
230
1
0
CIRCLE
5
127
100
AcDbEntity
8
0
100
AcDbCircle
10
100.02923923264871
20
-34.099016335667329
30
0
40
1.350000000000011
210
0
220
0
230
1
0
ENDSEC
0
SECTION
2
OBJECTS
0
DICTIONARY
5
C
100
AcDbDictionary
3
ACAD_GROUP
350
D
3
ACAD_MLINESTYLE
350
17
0
DICTIONARY
5
D
100
AcDbDictionary
0
DICTIONARY
5
1A
330
C
100
AcDbDictionary
0
DICTIONARY
5
17
100
AcDbDictionary
0
ENDSEC
0
EOF
